# xmcd
#
# Track frame offsets: 
#        150
#        14509
#        30042
#        47856
#        66262
#        81507
#        98845
#        111578
#        122526
#        136998
#        149443
#        166033
#        191887
#
# Disc length: 2736 seconds
#
# Revision: 0
# Processed by: cddbd v1.5.2PL0 Copyright (c) Steve Scherf et al.
# Submitted via: ExactAudioCopy v1.0b1
#
DISCID=b50aae0d
DTITLE=The Dynamite Blues Band - Shakedown and Boogie
DYEAR=2014
DGENRE=Blues
TTITLE0=Howlin'
TTITLE1=Boom Boom Boom
TTITLE2=Doin' Okay
TTITLE3=Anna Lee
TTITLE4=Rebound
TTITLE5=Movin' 
TTITLE6=TNT
TTITLE7=Speed Freak
TTITLE8=Boogie Through The Night
TTITLE9=Dynamizer
TTITLE10=Reset
TTITLE11=Black Magic
TTITLE12=Shakedown and Boogie
EXTD=
EXTT0=
EXTT1=
EXTT2=
EXTT3=
EXTT4=
EXTT5=
EXTT6=
EXTT7=
EXTT8=
EXTT9=
EXTT10=
EXTT11=
EXTT12=
PLAYORDER=
